<mxfile host="app.diagrams.net" modified="2023-12-01T22:17:46.740Z" agent="Mozilla/5.0 (Macintosh; Intel Mac OS X 10_15_7) AppleWebKit/537.36 (KHTML, like Gecko) Chrome/119.0.0.0 Safari/537.36" etag="xHkbpZRVxlZREFnq8iJO" version="22.1.5" type="device">
  <diagram name="Page-1" id="kPE5WqbCnMiGt_7BcjwZ">
    <mxGraphModel dx="2618" dy="1515" grid="1" gridSize="10" guides="1" tooltips="1" connect="1" arrows="1" fold="1" page="1" pageScale="1" pageWidth="1200" pageHeight="1920" math="0" shadow="0">
      <root>
        <mxCell id="0" />
        <mxCell id="1" parent="0" />
        <mxCell id="YEwtfYFNs63e-LBjWldY-33" value="" style="rounded=0;whiteSpace=wrap;html=1;" parent="1" vertex="1">
          <mxGeometry x="370" y="50" width="1020" height="190" as="geometry" />
        </mxCell>
        <mxCell id="YEwtfYFNs63e-LBjWldY-34" value="addr =0xa80e..." style="text;html=1;align=center;verticalAlign=middle;resizable=0;points=[];autosize=1;strokeColor=none;fillColor=none;" parent="1" vertex="1">
          <mxGeometry x="805" y="200" width="110" height="30" as="geometry" />
        </mxCell>
        <mxCell id="YEwtfYFNs63e-LBjWldY-35" value="My DARC 1" style="rounded=0;whiteSpace=wrap;html=1;" parent="1" vertex="1">
          <mxGeometry x="390" y="60" width="220" height="80" as="geometry" />
        </mxCell>
        <mxCell id="YEwtfYFNs63e-LBjWldY-36" value="upgrade_address = 0xa80e..." style="rounded=0;whiteSpace=wrap;html=1;" parent="1" vertex="1">
          <mxGeometry x="390" y="140" width="220" height="30" as="geometry" />
        </mxCell>
        <mxCell id="YEwtfYFNs63e-LBjWldY-37" value="addr = 0x5c41..." style="text;html=1;align=center;verticalAlign=middle;resizable=0;points=[];autosize=1;strokeColor=none;fillColor=none;" parent="1" vertex="1">
          <mxGeometry x="445" y="200" width="110" height="30" as="geometry" />
        </mxCell>
        <mxCell id="YEwtfYFNs63e-LBjWldY-38" value="confirm_upgraded_from_address = 0x0000..." style="rounded=0;whiteSpace=wrap;html=1;" parent="1" vertex="1">
          <mxGeometry x="390" y="170" width="220" height="30" as="geometry" />
        </mxCell>
        <mxCell id="YEwtfYFNs63e-LBjWldY-39" value="My DARC 2" style="rounded=0;whiteSpace=wrap;html=1;" parent="1" vertex="1">
          <mxGeometry x="750" y="60" width="220" height="80" as="geometry" />
        </mxCell>
        <mxCell id="YEwtfYFNs63e-LBjWldY-40" value="upgrade_address = 0x0000..." style="rounded=0;whiteSpace=wrap;html=1;" parent="1" vertex="1">
          <mxGeometry x="750" y="140" width="220" height="30" as="geometry" />
        </mxCell>
        <mxCell id="YEwtfYFNs63e-LBjWldY-41" style="edgeStyle=orthogonalEdgeStyle;rounded=0;orthogonalLoop=1;jettySize=auto;html=1;entryX=1;entryY=0.5;entryDx=0;entryDy=0;strokeColor=#0000FF;" parent="1" source="YEwtfYFNs63e-LBjWldY-42" target="YEwtfYFNs63e-LBjWldY-38" edge="1">
          <mxGeometry relative="1" as="geometry" />
        </mxCell>
        <mxCell id="YEwtfYFNs63e-LBjWldY-42" value="confirm_upgraded_from_address = 0x5c41..." style="rounded=0;whiteSpace=wrap;html=1;" parent="1" vertex="1">
          <mxGeometry x="750" y="170" width="220" height="30" as="geometry" />
        </mxCell>
        <mxCell id="YEwtfYFNs63e-LBjWldY-43" value="" style="curved=1;endArrow=classic;html=1;rounded=0;exitX=1;exitY=0.5;exitDx=0;exitDy=0;strokeColor=#FF0303;" parent="1" source="YEwtfYFNs63e-LBjWldY-36" target="YEwtfYFNs63e-LBjWldY-39" edge="1">
          <mxGeometry width="50" height="50" relative="1" as="geometry">
            <mxPoint x="640" y="150" as="sourcePoint" />
            <mxPoint x="690" y="100" as="targetPoint" />
            <Array as="points">
              <mxPoint x="690" y="160" />
              <mxPoint x="670" y="90" />
            </Array>
          </mxGeometry>
        </mxCell>
        <mxCell id="YEwtfYFNs63e-LBjWldY-45" value="Before upgrading" style="text;html=1;strokeColor=none;fillColor=none;align=center;verticalAlign=middle;whiteSpace=wrap;rounded=0;fontSize=16;" parent="1" vertex="1">
          <mxGeometry x="140" y="140" width="200" height="30" as="geometry" />
        </mxCell>
        <mxCell id="ljLZyUGYOAJyfAmNqbAf-4" style="edgeStyle=orthogonalEdgeStyle;rounded=0;orthogonalLoop=1;jettySize=auto;html=1;" edge="1" parent="1" source="YEwtfYFNs63e-LBjWldY-48" target="YEwtfYFNs63e-LBjWldY-94">
          <mxGeometry relative="1" as="geometry" />
        </mxCell>
        <mxCell id="YEwtfYFNs63e-LBjWldY-48" value="" style="rounded=0;whiteSpace=wrap;html=1;" parent="1" vertex="1">
          <mxGeometry x="370" y="320" width="1010" height="230" as="geometry" />
        </mxCell>
        <mxCell id="YEwtfYFNs63e-LBjWldY-49" value="addr =0xa80e..." style="text;html=1;align=center;verticalAlign=middle;resizable=0;points=[];autosize=1;strokeColor=none;fillColor=none;" parent="1" vertex="1">
          <mxGeometry x="805" y="470" width="110" height="30" as="geometry" />
        </mxCell>
        <mxCell id="YEwtfYFNs63e-LBjWldY-50" value="My DARC 1" style="rounded=0;whiteSpace=wrap;html=1;" parent="1" vertex="1">
          <mxGeometry x="390" y="330" width="220" height="80" as="geometry" />
        </mxCell>
        <mxCell id="YEwtfYFNs63e-LBjWldY-51" value="upgrade_address = 0xa80e..." style="rounded=0;whiteSpace=wrap;html=1;" parent="1" vertex="1">
          <mxGeometry x="390" y="410" width="220" height="30" as="geometry" />
        </mxCell>
        <mxCell id="YEwtfYFNs63e-LBjWldY-52" value="addr = 0x5c41..." style="text;html=1;align=center;verticalAlign=middle;resizable=0;points=[];autosize=1;strokeColor=none;fillColor=none;" parent="1" vertex="1">
          <mxGeometry x="445" y="470" width="110" height="30" as="geometry" />
        </mxCell>
        <mxCell id="YEwtfYFNs63e-LBjWldY-53" value="confirm_upgraded_from_address = 0x0000..." style="rounded=0;whiteSpace=wrap;html=1;" parent="1" vertex="1">
          <mxGeometry x="390" y="440" width="220" height="30" as="geometry" />
        </mxCell>
        <mxCell id="YEwtfYFNs63e-LBjWldY-54" value="My DARC 2" style="rounded=0;whiteSpace=wrap;html=1;" parent="1" vertex="1">
          <mxGeometry x="750" y="330" width="220" height="80" as="geometry" />
        </mxCell>
        <mxCell id="YEwtfYFNs63e-LBjWldY-55" value="upgrade_address = 0x0000..." style="rounded=0;whiteSpace=wrap;html=1;" parent="1" vertex="1">
          <mxGeometry x="750" y="410" width="220" height="30" as="geometry" />
        </mxCell>
        <mxCell id="YEwtfYFNs63e-LBjWldY-56" style="edgeStyle=orthogonalEdgeStyle;rounded=0;orthogonalLoop=1;jettySize=auto;html=1;entryX=1;entryY=0.5;entryDx=0;entryDy=0;strokeColor=#0000FF;" parent="1" source="YEwtfYFNs63e-LBjWldY-57" target="YEwtfYFNs63e-LBjWldY-53" edge="1">
          <mxGeometry relative="1" as="geometry" />
        </mxCell>
        <mxCell id="YEwtfYFNs63e-LBjWldY-57" value="confirm_upgraded_from_address = 0x5c41..." style="rounded=0;whiteSpace=wrap;html=1;" parent="1" vertex="1">
          <mxGeometry x="750" y="440" width="220" height="30" as="geometry" />
        </mxCell>
        <mxCell id="YEwtfYFNs63e-LBjWldY-58" value="" style="curved=1;endArrow=classic;html=1;rounded=0;exitX=1;exitY=0.5;exitDx=0;exitDy=0;strokeColor=#FF0303;" parent="1" source="YEwtfYFNs63e-LBjWldY-51" target="YEwtfYFNs63e-LBjWldY-54" edge="1">
          <mxGeometry width="50" height="50" relative="1" as="geometry">
            <mxPoint x="640" y="420" as="sourcePoint" />
            <mxPoint x="690" y="370" as="targetPoint" />
            <Array as="points">
              <mxPoint x="690" y="430" />
              <mxPoint x="670" y="360" />
            </Array>
          </mxGeometry>
        </mxCell>
        <mxCell id="YEwtfYFNs63e-LBjWldY-63" value="addr =0x117e..." style="text;html=1;align=center;verticalAlign=middle;resizable=0;points=[];autosize=1;strokeColor=none;fillColor=none;" parent="1" vertex="1">
          <mxGeometry x="1165" y="470" width="110" height="30" as="geometry" />
        </mxCell>
        <mxCell id="YEwtfYFNs63e-LBjWldY-64" value="My DARC 2" style="rounded=0;whiteSpace=wrap;html=1;" parent="1" vertex="1">
          <mxGeometry x="750" y="330" width="220" height="80" as="geometry" />
        </mxCell>
        <mxCell id="YEwtfYFNs63e-LBjWldY-65" value="upgrade_address = 0x0000..." style="rounded=0;whiteSpace=wrap;html=1;" parent="1" vertex="1">
          <mxGeometry x="750" y="410" width="220" height="30" as="geometry" />
        </mxCell>
        <mxCell id="YEwtfYFNs63e-LBjWldY-67" value="confirm_upgraded_from_address = 0x5c41..." style="rounded=0;whiteSpace=wrap;html=1;" parent="1" vertex="1">
          <mxGeometry x="750" y="440" width="220" height="30" as="geometry" />
        </mxCell>
        <mxCell id="YEwtfYFNs63e-LBjWldY-68" value="My DARC 3" style="rounded=0;whiteSpace=wrap;html=1;" parent="1" vertex="1">
          <mxGeometry x="1110" y="330" width="220" height="80" as="geometry" />
        </mxCell>
        <mxCell id="YEwtfYFNs63e-LBjWldY-69" value="upgrade_address = 0x0000..." style="rounded=0;whiteSpace=wrap;html=1;" parent="1" vertex="1">
          <mxGeometry x="1110" y="410" width="220" height="30" as="geometry" />
        </mxCell>
        <mxCell id="YEwtfYFNs63e-LBjWldY-71" value="confirm_upgraded_from_address = 0x0000..." style="rounded=0;whiteSpace=wrap;html=1;" parent="1" vertex="1">
          <mxGeometry x="1110" y="440" width="220" height="30" as="geometry" />
        </mxCell>
        <mxCell id="YEwtfYFNs63e-LBjWldY-94" value="" style="rounded=0;whiteSpace=wrap;html=1;" parent="1" vertex="1">
          <mxGeometry x="370" y="670" width="1010" height="230" as="geometry" />
        </mxCell>
        <mxCell id="YEwtfYFNs63e-LBjWldY-95" value="addr =0xa80e..." style="text;html=1;align=center;verticalAlign=middle;resizable=0;points=[];autosize=1;strokeColor=none;fillColor=none;" parent="1" vertex="1">
          <mxGeometry x="805" y="820" width="110" height="30" as="geometry" />
        </mxCell>
        <mxCell id="YEwtfYFNs63e-LBjWldY-96" value="My DARC 1" style="rounded=0;whiteSpace=wrap;html=1;" parent="1" vertex="1">
          <mxGeometry x="390" y="680" width="220" height="80" as="geometry" />
        </mxCell>
        <mxCell id="YEwtfYFNs63e-LBjWldY-97" value="upgrade_address = 0xa80e..." style="rounded=0;whiteSpace=wrap;html=1;" parent="1" vertex="1">
          <mxGeometry x="390" y="760" width="220" height="30" as="geometry" />
        </mxCell>
        <mxCell id="YEwtfYFNs63e-LBjWldY-98" value="addr = 0x5c41..." style="text;html=1;align=center;verticalAlign=middle;resizable=0;points=[];autosize=1;strokeColor=none;fillColor=none;" parent="1" vertex="1">
          <mxGeometry x="445" y="820" width="110" height="30" as="geometry" />
        </mxCell>
        <mxCell id="YEwtfYFNs63e-LBjWldY-99" value="confirm_upgraded_from_address = 0x0000..." style="rounded=0;whiteSpace=wrap;html=1;" parent="1" vertex="1">
          <mxGeometry x="390" y="790" width="220" height="30" as="geometry" />
        </mxCell>
        <mxCell id="YEwtfYFNs63e-LBjWldY-100" value="My DARC 2" style="rounded=0;whiteSpace=wrap;html=1;" parent="1" vertex="1">
          <mxGeometry x="750" y="680" width="220" height="80" as="geometry" />
        </mxCell>
        <mxCell id="YEwtfYFNs63e-LBjWldY-101" value="upgrade_address = 0x0000..." style="rounded=0;whiteSpace=wrap;html=1;" parent="1" vertex="1">
          <mxGeometry x="750" y="760" width="220" height="30" as="geometry" />
        </mxCell>
        <mxCell id="YEwtfYFNs63e-LBjWldY-102" style="edgeStyle=orthogonalEdgeStyle;rounded=0;orthogonalLoop=1;jettySize=auto;html=1;entryX=1;entryY=0.5;entryDx=0;entryDy=0;strokeColor=#0000FF;" parent="1" source="YEwtfYFNs63e-LBjWldY-103" target="YEwtfYFNs63e-LBjWldY-99" edge="1">
          <mxGeometry relative="1" as="geometry" />
        </mxCell>
        <mxCell id="YEwtfYFNs63e-LBjWldY-103" value="confirm_upgraded_from_address = 0x5c41..." style="rounded=0;whiteSpace=wrap;html=1;" parent="1" vertex="1">
          <mxGeometry x="750" y="790" width="220" height="30" as="geometry" />
        </mxCell>
        <mxCell id="YEwtfYFNs63e-LBjWldY-104" value="" style="curved=1;endArrow=classic;html=1;rounded=0;exitX=1;exitY=0.5;exitDx=0;exitDy=0;strokeColor=#FF0303;" parent="1" source="YEwtfYFNs63e-LBjWldY-97" target="YEwtfYFNs63e-LBjWldY-100" edge="1">
          <mxGeometry width="50" height="50" relative="1" as="geometry">
            <mxPoint x="640" y="770" as="sourcePoint" />
            <mxPoint x="690" y="720" as="targetPoint" />
            <Array as="points">
              <mxPoint x="690" y="780" />
              <mxPoint x="670" y="710" />
            </Array>
          </mxGeometry>
        </mxCell>
        <mxCell id="YEwtfYFNs63e-LBjWldY-105" value="addr =0x117e..." style="text;html=1;align=center;verticalAlign=middle;resizable=0;points=[];autosize=1;strokeColor=none;fillColor=none;" parent="1" vertex="1">
          <mxGeometry x="1165" y="820" width="110" height="30" as="geometry" />
        </mxCell>
        <mxCell id="YEwtfYFNs63e-LBjWldY-106" value="My DARC 2" style="rounded=0;whiteSpace=wrap;html=1;" parent="1" vertex="1">
          <mxGeometry x="750" y="680" width="220" height="80" as="geometry" />
        </mxCell>
        <mxCell id="YEwtfYFNs63e-LBjWldY-107" value="upgrade_address = 0x0000..." style="rounded=0;whiteSpace=wrap;html=1;" parent="1" vertex="1">
          <mxGeometry x="750" y="760" width="220" height="30" as="geometry" />
        </mxCell>
        <mxCell id="YEwtfYFNs63e-LBjWldY-108" value="confirm_upgraded_from_address = 0x5c41..." style="rounded=0;whiteSpace=wrap;html=1;" parent="1" vertex="1">
          <mxGeometry x="750" y="790" width="220" height="30" as="geometry" />
        </mxCell>
        <mxCell id="YEwtfYFNs63e-LBjWldY-109" value="My DARC 3" style="rounded=0;whiteSpace=wrap;html=1;" parent="1" vertex="1">
          <mxGeometry x="1110" y="680" width="220" height="80" as="geometry" />
        </mxCell>
        <mxCell id="YEwtfYFNs63e-LBjWldY-110" value="upgrade_address = 0x0000..." style="rounded=0;whiteSpace=wrap;html=1;" parent="1" vertex="1">
          <mxGeometry x="1110" y="760" width="220" height="30" as="geometry" />
        </mxCell>
        <mxCell id="YEwtfYFNs63e-LBjWldY-111" value="confirm_upgraded_from_address = 0x5c41..." style="rounded=0;whiteSpace=wrap;html=1;" parent="1" vertex="1">
          <mxGeometry x="1110" y="790" width="220" height="30" as="geometry" />
        </mxCell>
        <mxCell id="YEwtfYFNs63e-LBjWldY-113" value="" style="endArrow=classic;html=1;exitX=0;exitY=0.5;exitDx=0;exitDy=0;entryX=1;entryY=1;entryDx=0;entryDy=0;curved=1;strokeColor=#0000FF;" parent="1" source="YEwtfYFNs63e-LBjWldY-111" target="YEwtfYFNs63e-LBjWldY-99" edge="1">
          <mxGeometry width="50" height="50" relative="1" as="geometry">
            <mxPoint x="850" y="880" as="sourcePoint" />
            <mxPoint x="900" y="830" as="targetPoint" />
            <Array as="points">
              <mxPoint x="980" y="860" />
              <mxPoint x="770" y="870" />
            </Array>
          </mxGeometry>
        </mxCell>
        <mxCell id="ljLZyUGYOAJyfAmNqbAf-10" style="edgeStyle=orthogonalEdgeStyle;rounded=0;orthogonalLoop=1;jettySize=auto;html=1;entryX=0.5;entryY=0;entryDx=0;entryDy=0;" edge="1" parent="1" source="YEwtfYFNs63e-LBjWldY-114" target="YEwtfYFNs63e-LBjWldY-134">
          <mxGeometry relative="1" as="geometry" />
        </mxCell>
        <mxCell id="YEwtfYFNs63e-LBjWldY-114" value="" style="rounded=0;whiteSpace=wrap;html=1;" parent="1" vertex="1">
          <mxGeometry x="370" y="1020" width="1010" height="230" as="geometry" />
        </mxCell>
        <mxCell id="YEwtfYFNs63e-LBjWldY-115" value="addr =0xa80e..." style="text;html=1;align=center;verticalAlign=middle;resizable=0;points=[];autosize=1;strokeColor=none;fillColor=none;" parent="1" vertex="1">
          <mxGeometry x="805" y="1170" width="110" height="30" as="geometry" />
        </mxCell>
        <mxCell id="YEwtfYFNs63e-LBjWldY-116" value="My DARC 1" style="rounded=0;whiteSpace=wrap;html=1;" parent="1" vertex="1">
          <mxGeometry x="390" y="1030" width="220" height="80" as="geometry" />
        </mxCell>
        <mxCell id="YEwtfYFNs63e-LBjWldY-117" value="upgrade_address = 0xa80e..." style="rounded=0;whiteSpace=wrap;html=1;" parent="1" vertex="1">
          <mxGeometry x="390" y="1110" width="220" height="30" as="geometry" />
        </mxCell>
        <mxCell id="YEwtfYFNs63e-LBjWldY-118" value="addr = 0x5c41..." style="text;html=1;align=center;verticalAlign=middle;resizable=0;points=[];autosize=1;strokeColor=none;fillColor=none;" parent="1" vertex="1">
          <mxGeometry x="445" y="1170" width="110" height="30" as="geometry" />
        </mxCell>
        <mxCell id="YEwtfYFNs63e-LBjWldY-119" value="confirm_upgraded_from_address = 0x0000..." style="rounded=0;whiteSpace=wrap;html=1;" parent="1" vertex="1">
          <mxGeometry x="390" y="1140" width="220" height="30" as="geometry" />
        </mxCell>
        <mxCell id="YEwtfYFNs63e-LBjWldY-120" value="My DARC 2" style="rounded=0;whiteSpace=wrap;html=1;" parent="1" vertex="1">
          <mxGeometry x="750" y="1030" width="220" height="80" as="geometry" />
        </mxCell>
        <mxCell id="YEwtfYFNs63e-LBjWldY-121" value="upgrade_address = 0x0000..." style="rounded=0;whiteSpace=wrap;html=1;" parent="1" vertex="1">
          <mxGeometry x="750" y="1110" width="220" height="30" as="geometry" />
        </mxCell>
        <mxCell id="YEwtfYFNs63e-LBjWldY-122" style="edgeStyle=orthogonalEdgeStyle;rounded=0;orthogonalLoop=1;jettySize=auto;html=1;entryX=1;entryY=0.5;entryDx=0;entryDy=0;strokeColor=#0000FF;" parent="1" source="YEwtfYFNs63e-LBjWldY-123" target="YEwtfYFNs63e-LBjWldY-119" edge="1">
          <mxGeometry relative="1" as="geometry" />
        </mxCell>
        <mxCell id="YEwtfYFNs63e-LBjWldY-123" value="confirm_upgraded_from_address = 0x5c41..." style="rounded=0;whiteSpace=wrap;html=1;" parent="1" vertex="1">
          <mxGeometry x="750" y="1140" width="220" height="30" as="geometry" />
        </mxCell>
        <mxCell id="YEwtfYFNs63e-LBjWldY-124" value="" style="curved=1;endArrow=classic;html=1;rounded=0;exitX=1;exitY=0.5;exitDx=0;exitDy=0;strokeColor=#FF0303;" parent="1" source="YEwtfYFNs63e-LBjWldY-117" target="YEwtfYFNs63e-LBjWldY-120" edge="1">
          <mxGeometry width="50" height="50" relative="1" as="geometry">
            <mxPoint x="640" y="1120" as="sourcePoint" />
            <mxPoint x="690" y="1070" as="targetPoint" />
            <Array as="points">
              <mxPoint x="690" y="1130" />
              <mxPoint x="670" y="1060" />
            </Array>
          </mxGeometry>
        </mxCell>
        <mxCell id="YEwtfYFNs63e-LBjWldY-125" value="addr =0x117e..." style="text;html=1;align=center;verticalAlign=middle;resizable=0;points=[];autosize=1;strokeColor=none;fillColor=none;" parent="1" vertex="1">
          <mxGeometry x="1165" y="1170" width="110" height="30" as="geometry" />
        </mxCell>
        <mxCell id="YEwtfYFNs63e-LBjWldY-126" value="My DARC 2" style="rounded=0;whiteSpace=wrap;html=1;" parent="1" vertex="1">
          <mxGeometry x="750" y="1030" width="220" height="80" as="geometry" />
        </mxCell>
        <mxCell id="YEwtfYFNs63e-LBjWldY-127" value="upgrade_address = 0x117e..." style="rounded=0;whiteSpace=wrap;html=1;" parent="1" vertex="1">
          <mxGeometry x="750" y="1110" width="220" height="30" as="geometry" />
        </mxCell>
        <mxCell id="YEwtfYFNs63e-LBjWldY-128" value="confirm_upgraded_from_address = 0x5c41..." style="rounded=0;whiteSpace=wrap;html=1;" parent="1" vertex="1">
          <mxGeometry x="750" y="1140" width="220" height="30" as="geometry" />
        </mxCell>
        <mxCell id="YEwtfYFNs63e-LBjWldY-129" value="My DARC 3" style="rounded=0;whiteSpace=wrap;html=1;" parent="1" vertex="1">
          <mxGeometry x="1110" y="1030" width="220" height="80" as="geometry" />
        </mxCell>
        <mxCell id="YEwtfYFNs63e-LBjWldY-130" value="upgrade_address = 0x0000..." style="rounded=0;whiteSpace=wrap;html=1;" parent="1" vertex="1">
          <mxGeometry x="1110" y="1110" width="220" height="30" as="geometry" />
        </mxCell>
        <mxCell id="YEwtfYFNs63e-LBjWldY-131" value="confirm_upgraded_from_address = 0x5c41..." style="rounded=0;whiteSpace=wrap;html=1;" parent="1" vertex="1">
          <mxGeometry x="1110" y="1140" width="220" height="30" as="geometry" />
        </mxCell>
        <mxCell id="YEwtfYFNs63e-LBjWldY-132" value="" style="curved=1;endArrow=classic;html=1;rounded=0;exitX=1;exitY=0.5;exitDx=0;exitDy=0;strokeColor=#FF0303;" parent="1" source="YEwtfYFNs63e-LBjWldY-127" target="YEwtfYFNs63e-LBjWldY-129" edge="1">
          <mxGeometry width="50" height="50" relative="1" as="geometry">
            <mxPoint x="1000" y="1120" as="sourcePoint" />
            <mxPoint x="1050" y="1070" as="targetPoint" />
            <Array as="points">
              <mxPoint x="1050" y="1130" />
              <mxPoint x="1030" y="1060" />
            </Array>
          </mxGeometry>
        </mxCell>
        <mxCell id="YEwtfYFNs63e-LBjWldY-133" value="" style="endArrow=classic;html=1;exitX=0;exitY=0.5;exitDx=0;exitDy=0;entryX=1;entryY=1;entryDx=0;entryDy=0;curved=1;strokeColor=#0000FF;" parent="1" source="YEwtfYFNs63e-LBjWldY-131" target="YEwtfYFNs63e-LBjWldY-119" edge="1">
          <mxGeometry width="50" height="50" relative="1" as="geometry">
            <mxPoint x="850" y="1230" as="sourcePoint" />
            <mxPoint x="900" y="1180" as="targetPoint" />
            <Array as="points">
              <mxPoint x="980" y="1210" />
              <mxPoint x="770" y="1220" />
            </Array>
          </mxGeometry>
        </mxCell>
        <mxCell id="ljLZyUGYOAJyfAmNqbAf-13" style="edgeStyle=orthogonalEdgeStyle;rounded=0;orthogonalLoop=1;jettySize=auto;html=1;entryX=0.5;entryY=0;entryDx=0;entryDy=0;" edge="1" parent="1" source="YEwtfYFNs63e-LBjWldY-134" target="YEwtfYFNs63e-LBjWldY-154">
          <mxGeometry relative="1" as="geometry" />
        </mxCell>
        <mxCell id="YEwtfYFNs63e-LBjWldY-134" value="" style="rounded=0;whiteSpace=wrap;html=1;" parent="1" vertex="1">
          <mxGeometry x="370" y="1370" width="1010" height="270" as="geometry" />
        </mxCell>
        <mxCell id="YEwtfYFNs63e-LBjWldY-135" value="addr =0xa80e..." style="text;html=1;align=center;verticalAlign=middle;resizable=0;points=[];autosize=1;strokeColor=none;fillColor=none;" parent="1" vertex="1">
          <mxGeometry x="805" y="1560" width="110" height="30" as="geometry" />
        </mxCell>
        <mxCell id="YEwtfYFNs63e-LBjWldY-136" value="My DARC 1" style="rounded=0;whiteSpace=wrap;html=1;" parent="1" vertex="1">
          <mxGeometry x="390" y="1420" width="220" height="80" as="geometry" />
        </mxCell>
        <mxCell id="YEwtfYFNs63e-LBjWldY-137" value="upgrade_address = 0x117e..." style="rounded=0;whiteSpace=wrap;html=1;" parent="1" vertex="1">
          <mxGeometry x="390" y="1500" width="220" height="30" as="geometry" />
        </mxCell>
        <mxCell id="YEwtfYFNs63e-LBjWldY-138" value="addr = 0x5c41..." style="text;html=1;align=center;verticalAlign=middle;resizable=0;points=[];autosize=1;strokeColor=none;fillColor=none;" parent="1" vertex="1">
          <mxGeometry x="445" y="1560" width="110" height="30" as="geometry" />
        </mxCell>
        <mxCell id="YEwtfYFNs63e-LBjWldY-139" value="confirm_upgraded_from_address = 0x0000..." style="rounded=0;whiteSpace=wrap;html=1;" parent="1" vertex="1">
          <mxGeometry x="390" y="1530" width="220" height="30" as="geometry" />
        </mxCell>
        <mxCell id="YEwtfYFNs63e-LBjWldY-140" value="My DARC 2" style="rounded=0;whiteSpace=wrap;html=1;" parent="1" vertex="1">
          <mxGeometry x="750" y="1420" width="220" height="80" as="geometry" />
        </mxCell>
        <mxCell id="YEwtfYFNs63e-LBjWldY-141" value="upgrade_address = 0x0000..." style="rounded=0;whiteSpace=wrap;html=1;" parent="1" vertex="1">
          <mxGeometry x="750" y="1500" width="220" height="30" as="geometry" />
        </mxCell>
        <mxCell id="YEwtfYFNs63e-LBjWldY-142" style="edgeStyle=orthogonalEdgeStyle;rounded=0;orthogonalLoop=1;jettySize=auto;html=1;entryX=1;entryY=0.5;entryDx=0;entryDy=0;strokeColor=#0000FF;" parent="1" source="YEwtfYFNs63e-LBjWldY-143" target="YEwtfYFNs63e-LBjWldY-139" edge="1">
          <mxGeometry relative="1" as="geometry" />
        </mxCell>
        <mxCell id="YEwtfYFNs63e-LBjWldY-143" value="confirm_upgraded_from_address = 0x5c41..." style="rounded=0;whiteSpace=wrap;html=1;" parent="1" vertex="1">
          <mxGeometry x="750" y="1530" width="220" height="30" as="geometry" />
        </mxCell>
        <mxCell id="YEwtfYFNs63e-LBjWldY-144" value="" style="curved=1;endArrow=classic;html=1;rounded=0;exitX=1;exitY=0.5;exitDx=0;exitDy=0;strokeColor=#FF0303;entryX=0;entryY=0;entryDx=0;entryDy=0;" parent="1" source="YEwtfYFNs63e-LBjWldY-137" target="YEwtfYFNs63e-LBjWldY-149" edge="1">
          <mxGeometry width="50" height="50" relative="1" as="geometry">
            <mxPoint x="640" y="1510" as="sourcePoint" />
            <mxPoint x="690" y="1460" as="targetPoint" />
            <Array as="points">
              <mxPoint x="640" y="1480" />
              <mxPoint x="710" y="1400" />
              <mxPoint x="890" y="1380" />
              <mxPoint x="1050" y="1400" />
            </Array>
          </mxGeometry>
        </mxCell>
        <mxCell id="YEwtfYFNs63e-LBjWldY-145" value="addr =0x117e..." style="text;html=1;align=center;verticalAlign=middle;resizable=0;points=[];autosize=1;strokeColor=none;fillColor=none;" parent="1" vertex="1">
          <mxGeometry x="1165" y="1560" width="110" height="30" as="geometry" />
        </mxCell>
        <mxCell id="YEwtfYFNs63e-LBjWldY-146" value="My DARC 2" style="rounded=0;whiteSpace=wrap;html=1;" parent="1" vertex="1">
          <mxGeometry x="750" y="1420" width="220" height="80" as="geometry" />
        </mxCell>
        <mxCell id="YEwtfYFNs63e-LBjWldY-147" value="upgrade_address = 0x117e..." style="rounded=0;whiteSpace=wrap;html=1;" parent="1" vertex="1">
          <mxGeometry x="750" y="1500" width="220" height="30" as="geometry" />
        </mxCell>
        <mxCell id="YEwtfYFNs63e-LBjWldY-148" value="confirm_upgraded_from_address = 0x5c41..." style="rounded=0;whiteSpace=wrap;html=1;" parent="1" vertex="1">
          <mxGeometry x="750" y="1530" width="220" height="30" as="geometry" />
        </mxCell>
        <mxCell id="YEwtfYFNs63e-LBjWldY-149" value="My DARC 3" style="rounded=0;whiteSpace=wrap;html=1;" parent="1" vertex="1">
          <mxGeometry x="1110" y="1420" width="220" height="80" as="geometry" />
        </mxCell>
        <mxCell id="YEwtfYFNs63e-LBjWldY-150" value="upgrade_address = 0x0000..." style="rounded=0;whiteSpace=wrap;html=1;" parent="1" vertex="1">
          <mxGeometry x="1110" y="1500" width="220" height="30" as="geometry" />
        </mxCell>
        <mxCell id="YEwtfYFNs63e-LBjWldY-151" value="confirm_upgraded_from_address = 0x5c41..." style="rounded=0;whiteSpace=wrap;html=1;" parent="1" vertex="1">
          <mxGeometry x="1110" y="1530" width="220" height="30" as="geometry" />
        </mxCell>
        <mxCell id="YEwtfYFNs63e-LBjWldY-152" value="" style="curved=1;endArrow=classic;html=1;rounded=0;exitX=1;exitY=0.5;exitDx=0;exitDy=0;strokeColor=#FF0303;" parent="1" source="YEwtfYFNs63e-LBjWldY-147" target="YEwtfYFNs63e-LBjWldY-149" edge="1">
          <mxGeometry width="50" height="50" relative="1" as="geometry">
            <mxPoint x="1000" y="1510" as="sourcePoint" />
            <mxPoint x="1050" y="1460" as="targetPoint" />
            <Array as="points">
              <mxPoint x="1050" y="1520" />
              <mxPoint x="1030" y="1450" />
            </Array>
          </mxGeometry>
        </mxCell>
        <mxCell id="YEwtfYFNs63e-LBjWldY-153" value="" style="endArrow=classic;html=1;exitX=0;exitY=0.5;exitDx=0;exitDy=0;entryX=1;entryY=1;entryDx=0;entryDy=0;curved=1;strokeColor=#0000FF;" parent="1" source="YEwtfYFNs63e-LBjWldY-151" target="YEwtfYFNs63e-LBjWldY-139" edge="1">
          <mxGeometry width="50" height="50" relative="1" as="geometry">
            <mxPoint x="850" y="1620" as="sourcePoint" />
            <mxPoint x="900" y="1570" as="targetPoint" />
            <Array as="points">
              <mxPoint x="980" y="1600" />
              <mxPoint x="770" y="1610" />
            </Array>
          </mxGeometry>
        </mxCell>
        <mxCell id="YEwtfYFNs63e-LBjWldY-154" value="" style="rounded=0;whiteSpace=wrap;html=1;" parent="1" vertex="1">
          <mxGeometry x="370" y="1740" width="1010" height="270" as="geometry" />
        </mxCell>
        <mxCell id="YEwtfYFNs63e-LBjWldY-155" value="addr =0xa80e..." style="text;html=1;align=center;verticalAlign=middle;resizable=0;points=[];autosize=1;strokeColor=none;fillColor=none;fontColor=#D6D6D6;" parent="1" vertex="1">
          <mxGeometry x="805" y="1930" width="110" height="30" as="geometry" />
        </mxCell>
        <mxCell id="YEwtfYFNs63e-LBjWldY-156" value="My DARC 1" style="rounded=0;whiteSpace=wrap;html=1;" parent="1" vertex="1">
          <mxGeometry x="390" y="1790" width="220" height="80" as="geometry" />
        </mxCell>
        <mxCell id="YEwtfYFNs63e-LBjWldY-157" value="upgrade_address = 0x117e..." style="rounded=0;whiteSpace=wrap;html=1;" parent="1" vertex="1">
          <mxGeometry x="390" y="1870" width="220" height="30" as="geometry" />
        </mxCell>
        <mxCell id="YEwtfYFNs63e-LBjWldY-158" value="addr = 0x5c41..." style="text;html=1;align=center;verticalAlign=middle;resizable=0;points=[];autosize=1;strokeColor=none;fillColor=none;" parent="1" vertex="1">
          <mxGeometry x="445" y="1930" width="110" height="30" as="geometry" />
        </mxCell>
        <mxCell id="YEwtfYFNs63e-LBjWldY-159" value="confirm_upgraded_from_address = 0x0000..." style="rounded=0;whiteSpace=wrap;html=1;" parent="1" vertex="1">
          <mxGeometry x="390" y="1900" width="220" height="30" as="geometry" />
        </mxCell>
        <mxCell id="YEwtfYFNs63e-LBjWldY-160" value="My DARC 2" style="rounded=0;whiteSpace=wrap;html=1;" parent="1" vertex="1">
          <mxGeometry x="750" y="1790" width="220" height="80" as="geometry" />
        </mxCell>
        <mxCell id="YEwtfYFNs63e-LBjWldY-161" value="upgrade_address = 0x0000..." style="rounded=0;whiteSpace=wrap;html=1;" parent="1" vertex="1">
          <mxGeometry x="750" y="1870" width="220" height="30" as="geometry" />
        </mxCell>
        <mxCell id="YEwtfYFNs63e-LBjWldY-162" style="edgeStyle=orthogonalEdgeStyle;rounded=0;orthogonalLoop=1;jettySize=auto;html=1;entryX=1;entryY=0.5;entryDx=0;entryDy=0;strokeColor=#D6D6D6;shadow=0;" parent="1" source="YEwtfYFNs63e-LBjWldY-163" target="YEwtfYFNs63e-LBjWldY-159" edge="1">
          <mxGeometry relative="1" as="geometry" />
        </mxCell>
        <mxCell id="YEwtfYFNs63e-LBjWldY-163" value="confirm_upgraded_from_address = 0x5c41..." style="rounded=0;whiteSpace=wrap;html=1;" parent="1" vertex="1">
          <mxGeometry x="750" y="1900" width="220" height="30" as="geometry" />
        </mxCell>
        <mxCell id="YEwtfYFNs63e-LBjWldY-164" value="" style="curved=1;endArrow=classic;html=1;rounded=0;exitX=1;exitY=0.5;exitDx=0;exitDy=0;strokeColor=#FF0303;entryX=0;entryY=0;entryDx=0;entryDy=0;" parent="1" source="YEwtfYFNs63e-LBjWldY-157" target="YEwtfYFNs63e-LBjWldY-169" edge="1">
          <mxGeometry width="50" height="50" relative="1" as="geometry">
            <mxPoint x="640" y="1880" as="sourcePoint" />
            <mxPoint x="690" y="1830" as="targetPoint" />
            <Array as="points">
              <mxPoint x="640" y="1850" />
              <mxPoint x="710" y="1770" />
              <mxPoint x="890" y="1750" />
              <mxPoint x="1050" y="1770" />
            </Array>
          </mxGeometry>
        </mxCell>
        <mxCell id="YEwtfYFNs63e-LBjWldY-165" value="addr =0x117e..." style="text;html=1;align=center;verticalAlign=middle;resizable=0;points=[];autosize=1;strokeColor=none;fillColor=none;" parent="1" vertex="1">
          <mxGeometry x="1165" y="1930" width="110" height="30" as="geometry" />
        </mxCell>
        <mxCell id="YEwtfYFNs63e-LBjWldY-166" value="My DARC 2" style="rounded=0;whiteSpace=wrap;html=1;shadow=0;strokeColor=#D6D6D6;fontColor=#D6D6D6;" parent="1" vertex="1">
          <mxGeometry x="750" y="1790" width="220" height="80" as="geometry" />
        </mxCell>
        <mxCell id="YEwtfYFNs63e-LBjWldY-167" value="upgrade_address = 0x117e..." style="rounded=0;whiteSpace=wrap;html=1;shadow=0;strokeColor=#D6D6D6;fontColor=#D6D6D6;" parent="1" vertex="1">
          <mxGeometry x="750" y="1870" width="220" height="30" as="geometry" />
        </mxCell>
        <mxCell id="YEwtfYFNs63e-LBjWldY-168" value="confirm_upgraded_from_address = 0x5c41..." style="rounded=0;whiteSpace=wrap;html=1;shadow=0;strokeColor=#D6D6D6;fontColor=#D6D6D6;" parent="1" vertex="1">
          <mxGeometry x="750" y="1900" width="220" height="30" as="geometry" />
        </mxCell>
        <mxCell id="YEwtfYFNs63e-LBjWldY-169" value="My DARC 3" style="rounded=0;whiteSpace=wrap;html=1;" parent="1" vertex="1">
          <mxGeometry x="1110" y="1790" width="220" height="80" as="geometry" />
        </mxCell>
        <mxCell id="YEwtfYFNs63e-LBjWldY-170" value="upgrade_address = 0x0000..." style="rounded=0;whiteSpace=wrap;html=1;" parent="1" vertex="1">
          <mxGeometry x="1110" y="1870" width="220" height="30" as="geometry" />
        </mxCell>
        <mxCell id="YEwtfYFNs63e-LBjWldY-171" value="confirm_upgraded_from_address = 0x5c41..." style="rounded=0;whiteSpace=wrap;html=1;" parent="1" vertex="1">
          <mxGeometry x="1110" y="1900" width="220" height="30" as="geometry" />
        </mxCell>
        <mxCell id="YEwtfYFNs63e-LBjWldY-172" value="" style="curved=1;endArrow=classic;html=1;rounded=0;exitX=1;exitY=0.5;exitDx=0;exitDy=0;strokeColor=#D6D6D6;shadow=0;" parent="1" source="YEwtfYFNs63e-LBjWldY-167" target="YEwtfYFNs63e-LBjWldY-169" edge="1">
          <mxGeometry width="50" height="50" relative="1" as="geometry">
            <mxPoint x="1000" y="1880" as="sourcePoint" />
            <mxPoint x="1050" y="1830" as="targetPoint" />
            <Array as="points">
              <mxPoint x="1050" y="1890" />
              <mxPoint x="1030" y="1820" />
            </Array>
          </mxGeometry>
        </mxCell>
        <mxCell id="YEwtfYFNs63e-LBjWldY-173" value="" style="endArrow=classic;html=1;exitX=0;exitY=0.5;exitDx=0;exitDy=0;entryX=1;entryY=1;entryDx=0;entryDy=0;curved=1;strokeColor=#0000FF;" parent="1" source="YEwtfYFNs63e-LBjWldY-171" target="YEwtfYFNs63e-LBjWldY-159" edge="1">
          <mxGeometry width="50" height="50" relative="1" as="geometry">
            <mxPoint x="850" y="1990" as="sourcePoint" />
            <mxPoint x="900" y="1940" as="targetPoint" />
            <Array as="points">
              <mxPoint x="980" y="1970" />
              <mxPoint x="770" y="1980" />
            </Array>
          </mxGeometry>
        </mxCell>
        <mxCell id="ljLZyUGYOAJyfAmNqbAf-1" value="My DARC 3 Deployed" style="text;html=1;strokeColor=none;fillColor=none;align=center;verticalAlign=middle;whiteSpace=wrap;rounded=0;fontSize=16;" vertex="1" parent="1">
          <mxGeometry x="160" y="420" width="160" height="30" as="geometry" />
        </mxCell>
        <mxCell id="ljLZyUGYOAJyfAmNqbAf-2" style="edgeStyle=orthogonalEdgeStyle;rounded=0;orthogonalLoop=1;jettySize=auto;html=1;entryX=0.505;entryY=-0.006;entryDx=0;entryDy=0;entryPerimeter=0;" edge="1" parent="1" source="YEwtfYFNs63e-LBjWldY-33" target="YEwtfYFNs63e-LBjWldY-48">
          <mxGeometry relative="1" as="geometry" />
        </mxCell>
        <mxCell id="ljLZyUGYOAJyfAmNqbAf-3" value="Deploy and setup a newer version of DARC" style="text;html=1;align=center;verticalAlign=middle;resizable=0;points=[];autosize=1;strokeColor=none;fillColor=none;" vertex="1" parent="1">
          <mxGeometry x="880" y="260" width="260" height="30" as="geometry" />
        </mxCell>
        <mxCell id="ljLZyUGYOAJyfAmNqbAf-5" value="&lt;font color=&quot;#cc0000&quot; style=&quot;background-color: rgb(238, 255, 0);&quot; face=&quot;Courier New&quot;&gt;//execute By-law Script on My DARC 3&lt;br&gt;confirmUpgradedFromAddress(&#39;0x5c41...&#39;);&lt;/font&gt;" style="text;html=1;strokeColor=none;fillColor=none;align=left;verticalAlign=middle;whiteSpace=wrap;rounded=0;" vertex="1" parent="1">
          <mxGeometry x="890" y="590" width="300" height="40" as="geometry" />
        </mxCell>
        <mxCell id="ljLZyUGYOAJyfAmNqbAf-6" value="Confirm My DARC 3 can be upgraded from My DARC 1" style="text;html=1;strokeColor=none;fillColor=none;align=center;verticalAlign=middle;whiteSpace=wrap;rounded=0;" vertex="1" parent="1">
          <mxGeometry x="880" y="570" width="320" height="30" as="geometry" />
        </mxCell>
        <mxCell id="ljLZyUGYOAJyfAmNqbAf-7" style="edgeStyle=orthogonalEdgeStyle;rounded=0;orthogonalLoop=1;jettySize=auto;html=1;entryX=0.5;entryY=0;entryDx=0;entryDy=0;" edge="1" parent="1" source="YEwtfYFNs63e-LBjWldY-94" target="YEwtfYFNs63e-LBjWldY-114">
          <mxGeometry relative="1" as="geometry" />
        </mxCell>
        <mxCell id="ljLZyUGYOAJyfAmNqbAf-8" value="&lt;font color=&quot;#cc0000&quot; style=&quot;background-color: rgb(238, 255, 0);&quot; face=&quot;Courier New&quot;&gt;//execute By-law Script on My DARC 1&lt;br&gt;upgradeToAddress(&#39;0x117e...&#39;);&lt;br&gt;&lt;/font&gt;" style="text;html=1;strokeColor=none;fillColor=none;align=left;verticalAlign=middle;whiteSpace=wrap;rounded=0;" vertex="1" parent="1">
          <mxGeometry x="890" y="950" width="300" height="50" as="geometry" />
        </mxCell>
        <mxCell id="ljLZyUGYOAJyfAmNqbAf-9" value="Upgrade from My DARC 1/2 to My DARC 3" style="text;html=1;strokeColor=none;fillColor=none;align=center;verticalAlign=middle;whiteSpace=wrap;rounded=0;" vertex="1" parent="1">
          <mxGeometry x="830" y="930" width="350" height="30" as="geometry" />
        </mxCell>
        <mxCell id="ljLZyUGYOAJyfAmNqbAf-11" value="&lt;font color=&quot;#cc0000&quot; style=&quot;background-color: rgb(238, 255, 0);&quot; face=&quot;Courier New&quot;&gt;//execute By-law Script on My DARC 1&lt;br&gt;upgradeToTheLatest();&lt;br&gt;&lt;/font&gt;" style="text;html=1;strokeColor=none;fillColor=none;align=left;verticalAlign=middle;whiteSpace=wrap;rounded=0;" vertex="1" parent="1">
          <mxGeometry x="885" y="1300" width="300" height="50" as="geometry" />
        </mxCell>
        <mxCell id="ljLZyUGYOAJyfAmNqbAf-12" value="Upgrade My DARC 1 to the latest - directly pointing to My DARC 3" style="text;html=1;strokeColor=none;fillColor=none;align=center;verticalAlign=middle;whiteSpace=wrap;rounded=0;" vertex="1" parent="1">
          <mxGeometry x="865" y="1280" width="395" height="30" as="geometry" />
        </mxCell>
        <mxCell id="ljLZyUGYOAJyfAmNqbAf-14" value="Now you can safely shutdown My DARC 2" style="text;html=1;strokeColor=none;fillColor=none;align=center;verticalAlign=middle;whiteSpace=wrap;rounded=0;" vertex="1" parent="1">
          <mxGeometry x="830" y="1670" width="350" height="30" as="geometry" />
        </mxCell>
        <mxCell id="ljLZyUGYOAJyfAmNqbAf-15" value="Confirming upgrading from My DARC 3 back to My DARC 1" style="text;html=1;strokeColor=none;fillColor=none;align=center;verticalAlign=middle;whiteSpace=wrap;rounded=0;fontSize=16;" vertex="1" parent="1">
          <mxGeometry x="130" y="770" width="220" height="30" as="geometry" />
        </mxCell>
        <mxCell id="ljLZyUGYOAJyfAmNqbAf-16" value="Upgrading from My DARC 2 to My DARC 3" style="text;html=1;strokeColor=none;fillColor=none;align=center;verticalAlign=middle;whiteSpace=wrap;rounded=0;fontSize=16;" vertex="1" parent="1">
          <mxGeometry x="130" y="1120" width="220" height="30" as="geometry" />
        </mxCell>
        <mxCell id="ljLZyUGYOAJyfAmNqbAf-17" value="Upgrading My DARC 1 directly to the latest My DARC 3" style="text;html=1;strokeColor=none;fillColor=none;align=center;verticalAlign=middle;whiteSpace=wrap;rounded=0;fontSize=16;" vertex="1" parent="1">
          <mxGeometry x="130" y="1490" width="220" height="30" as="geometry" />
        </mxCell>
        <mxCell id="ljLZyUGYOAJyfAmNqbAf-18" value="My DARC 2 terminated" style="text;html=1;strokeColor=none;fillColor=none;align=center;verticalAlign=middle;whiteSpace=wrap;rounded=0;fontSize=16;" vertex="1" parent="1">
          <mxGeometry x="130" y="1860" width="220" height="30" as="geometry" />
        </mxCell>
      </root>
    </mxGraphModel>
  </diagram>
</mxfile>
